<mxfile host="app.diagrams.net" modified="2021-06-26T05:07:46.430Z" agent="5.0 (Windows NT 10.0; Win64; x64) AppleWebKit/537.36 (KHTML, like Gecko) Chrome/78.0.3904.97 Safari/537.36" etag="ILCu5D1duKwlSSm6XxUu" version="14.8.1" type="github">
  <diagram name="Page-1" id="5d7acffa-a066-3a61-03fe-96351882024d">
    <mxGraphModel dx="1422" dy="804" grid="1" gridSize="10" guides="1" tooltips="1" connect="1" arrows="1" fold="1" page="1" pageScale="1" pageWidth="1100" pageHeight="850" background="#ffffff" math="0" shadow="0">
      <root>
        <mxCell id="0" />
        <mxCell id="1" parent="0" />
        <mxCell id="Oxr2O7YghAp8t42AMq-g-20" style="edgeStyle=orthogonalEdgeStyle;rounded=1;orthogonalLoop=1;jettySize=auto;html=1;fontFamily=Verdana;" edge="1" parent="1" source="21ea969265ad0168-14" target="21ea969265ad0168-30">
          <mxGeometry relative="1" as="geometry" />
        </mxCell>
        <mxCell id="Oxr2O7YghAp8t42AMq-g-21" value="修改的信息内容" style="edgeLabel;html=1;align=center;verticalAlign=middle;resizable=0;points=[];fontFamily=Verdana;" vertex="1" connectable="0" parent="Oxr2O7YghAp8t42AMq-g-20">
          <mxGeometry x="-0.1789" y="-5" relative="1" as="geometry">
            <mxPoint as="offset" />
          </mxGeometry>
        </mxCell>
        <mxCell id="21ea969265ad0168-14" value="修改学生学籍信息" style="swimlane;html=1;fontStyle=0;childLayout=stackLayout;horizontal=1;startSize=26;fillColor=#e0e0e0;horizontalStack=0;resizeParent=1;resizeLast=0;collapsible=1;marginBottom=0;swimlaneFillColor=#ffffff;align=center;rounded=1;shadow=0;comic=0;labelBackgroundColor=none;strokeWidth=1;fontFamily=Verdana;fontSize=12" parent="1" vertex="1">
          <mxGeometry x="440" y="640" width="160" height="64" as="geometry" />
        </mxCell>
        <mxCell id="Oxr2O7YghAp8t42AMq-g-8" style="edgeStyle=orthogonalEdgeStyle;rounded=1;orthogonalLoop=1;jettySize=auto;html=1;fontFamily=Verdana;entryX=0.544;entryY=-0.02;entryDx=0;entryDy=0;entryPerimeter=0;" edge="1" parent="1" source="21ea969265ad0168-18" target="Oxr2O7YghAp8t42AMq-g-6">
          <mxGeometry relative="1" as="geometry">
            <mxPoint x="660" y="80" as="targetPoint" />
          </mxGeometry>
        </mxCell>
        <mxCell id="Oxr2O7YghAp8t42AMq-g-10" value="密码注册信息" style="edgeLabel;html=1;align=center;verticalAlign=middle;resizable=0;points=[];fontFamily=Verdana;" vertex="1" connectable="0" parent="Oxr2O7YghAp8t42AMq-g-8">
          <mxGeometry x="-0.0414" y="2" relative="1" as="geometry">
            <mxPoint as="offset" />
          </mxGeometry>
        </mxCell>
        <mxCell id="21ea969265ad0168-18" value="注册用户" style="swimlane;html=1;fontStyle=0;childLayout=stackLayout;horizontal=1;startSize=26;fillColor=#e0e0e0;horizontalStack=0;resizeParent=1;resizeLast=0;collapsible=1;marginBottom=0;swimlaneFillColor=#ffffff;align=center;rounded=1;shadow=0;comic=0;labelBackgroundColor=none;strokeWidth=1;fontFamily=Verdana;fontSize=12" parent="1" vertex="1">
          <mxGeometry x="200" y="40" width="160" height="60" as="geometry">
            <mxRectangle x="160" y="570" width="80" height="26" as="alternateBounds" />
          </mxGeometry>
        </mxCell>
        <mxCell id="Oxr2O7YghAp8t42AMq-g-7" style="edgeStyle=orthogonalEdgeStyle;rounded=1;orthogonalLoop=1;jettySize=auto;html=1;entryX=0.5;entryY=1.02;entryDx=0;entryDy=0;entryPerimeter=0;fontFamily=Verdana;" edge="1" parent="1" source="21ea969265ad0168-22" target="Oxr2O7YghAp8t42AMq-g-6">
          <mxGeometry relative="1" as="geometry" />
        </mxCell>
        <mxCell id="Oxr2O7YghAp8t42AMq-g-32" style="edgeStyle=orthogonalEdgeStyle;rounded=1;orthogonalLoop=1;jettySize=auto;html=1;entryX=0.5;entryY=0;entryDx=0;entryDy=0;fontFamily=Verdana;" edge="1" parent="1" source="21ea969265ad0168-22" target="21ea969265ad0168-14">
          <mxGeometry relative="1" as="geometry">
            <Array as="points">
              <mxPoint x="520" y="334" />
              <mxPoint x="520" y="636" />
            </Array>
          </mxGeometry>
        </mxCell>
        <mxCell id="Oxr2O7YghAp8t42AMq-g-33" value="修改命令" style="edgeLabel;html=1;align=center;verticalAlign=middle;resizable=0;points=[];fontFamily=Verdana;" vertex="1" connectable="0" parent="Oxr2O7YghAp8t42AMq-g-32">
          <mxGeometry x="-0.102" y="-2" relative="1" as="geometry">
            <mxPoint as="offset" />
          </mxGeometry>
        </mxCell>
        <mxCell id="Oxr2O7YghAp8t42AMq-g-34" value="修改密码指令" style="edgeStyle=orthogonalEdgeStyle;rounded=1;orthogonalLoop=1;jettySize=auto;html=1;fontFamily=Verdana;entryX=0.5;entryY=1;entryDx=0;entryDy=0;" edge="1" parent="1" source="21ea969265ad0168-22" target="Oxr2O7YghAp8t42AMq-g-12">
          <mxGeometry relative="1" as="geometry">
            <mxPoint x="450" y="230" as="targetPoint" />
            <Array as="points">
              <mxPoint x="450" y="334" />
            </Array>
          </mxGeometry>
        </mxCell>
        <mxCell id="Oxr2O7YghAp8t42AMq-g-38" style="edgeStyle=orthogonalEdgeStyle;rounded=1;orthogonalLoop=1;jettySize=auto;html=1;fontFamily=Verdana;entryX=0;entryY=0.5;entryDx=0;entryDy=0;" edge="1" parent="1" target="Oxr2O7YghAp8t42AMq-g-37">
          <mxGeometry relative="1" as="geometry">
            <mxPoint x="670" y="290" as="sourcePoint" />
            <mxPoint x="820" y="158" as="targetPoint" />
          </mxGeometry>
        </mxCell>
        <mxCell id="Oxr2O7YghAp8t42AMq-g-40" value="添加命令" style="edgeLabel;html=1;align=center;verticalAlign=middle;resizable=0;points=[];fontFamily=Verdana;" vertex="1" connectable="0" parent="Oxr2O7YghAp8t42AMq-g-38">
          <mxGeometry x="0.0857" relative="1" as="geometry">
            <mxPoint as="offset" />
          </mxGeometry>
        </mxCell>
        <mxCell id="21ea969265ad0168-22" value="身份验证" style="swimlane;html=1;fontStyle=0;childLayout=stackLayout;horizontal=1;startSize=26;fillColor=#e0e0e0;horizontalStack=0;resizeParent=1;resizeLast=0;collapsible=1;marginBottom=0;swimlaneFillColor=#ffffff;align=center;rounded=1;shadow=0;comic=0;labelBackgroundColor=none;strokeWidth=1;fontFamily=Verdana;fontSize=12" parent="1" vertex="1">
          <mxGeometry x="590" y="292" width="160" height="84" as="geometry">
            <mxRectangle x="560" y="292" width="80" height="26" as="alternateBounds" />
          </mxGeometry>
        </mxCell>
        <mxCell id="Oxr2O7YghAp8t42AMq-g-28" value="学生信息" style="edgeStyle=orthogonalEdgeStyle;rounded=1;orthogonalLoop=1;jettySize=auto;html=1;entryX=1;entryY=0.5;entryDx=0;entryDy=0;fontFamily=Verdana;exitX=-0.007;exitY=0.54;exitDx=0;exitDy=0;exitPerimeter=0;" edge="1" parent="1" source="21ea969265ad0168-30" target="Oxr2O7YghAp8t42AMq-g-11">
          <mxGeometry relative="1" as="geometry" />
        </mxCell>
        <mxCell id="21ea969265ad0168-30" value="学生信息数据库" style="html=1;rounded=0;shadow=0;comic=0;labelBackgroundColor=none;strokeWidth=2;fontFamily=Verdana;fontSize=12;align=center;shape=mxgraph.ios7ui.horLines;" parent="1" vertex="1">
          <mxGeometry x="1090" y="360" width="135" height="50" as="geometry" />
        </mxCell>
        <mxCell id="21ea969265ad0168-43" style="edgeStyle=orthogonalEdgeStyle;html=1;labelBackgroundColor=none;startFill=0;startSize=8;endFill=1;endSize=8;fontFamily=Verdana;fontSize=12;" parent="1" edge="1">
          <mxGeometry relative="1" as="geometry">
            <mxPoint x="880" y="331" as="targetPoint" />
            <mxPoint x="750" y="331" as="sourcePoint" />
          </mxGeometry>
        </mxCell>
        <mxCell id="Oxr2O7YghAp8t42AMq-g-23" value="查询命令" style="edgeLabel;html=1;align=center;verticalAlign=middle;resizable=0;points=[];fontFamily=Verdana;" vertex="1" connectable="0" parent="21ea969265ad0168-43">
          <mxGeometry x="-0.1875" y="-3" relative="1" as="geometry">
            <mxPoint as="offset" />
          </mxGeometry>
        </mxCell>
        <mxCell id="Oxr2O7YghAp8t42AMq-g-5" value="登录信息" style="edgeStyle=orthogonalEdgeStyle;rounded=0;orthogonalLoop=1;jettySize=auto;html=1;entryX=0.5;entryY=1;entryDx=0;entryDy=0;fontFamily=Verdana;" edge="1" parent="1" source="Oxr2O7YghAp8t42AMq-g-1" target="21ea969265ad0168-22">
          <mxGeometry relative="1" as="geometry" />
        </mxCell>
        <mxCell id="Oxr2O7YghAp8t42AMq-g-9" value="用户密码信息" style="edgeStyle=orthogonalEdgeStyle;rounded=1;orthogonalLoop=1;jettySize=auto;html=1;entryX=0.5;entryY=1;entryDx=0;entryDy=0;fontFamily=Verdana;" edge="1" parent="1" source="Oxr2O7YghAp8t42AMq-g-1" target="21ea969265ad0168-18">
          <mxGeometry relative="1" as="geometry" />
        </mxCell>
        <mxCell id="Oxr2O7YghAp8t42AMq-g-1" value="用户" style="rounded=1;whiteSpace=wrap;html=1;fontFamily=Verdana;" vertex="1" parent="1">
          <mxGeometry x="610" y="470" width="120" height="60" as="geometry" />
        </mxCell>
        <mxCell id="Oxr2O7YghAp8t42AMq-g-6" value="用户密码数据库" style="html=1;rounded=0;shadow=0;comic=0;labelBackgroundColor=none;strokeWidth=2;fontFamily=Verdana;fontSize=12;align=center;shape=mxgraph.ios7ui.horLines;" vertex="1" parent="1">
          <mxGeometry x="602.5" y="140" width="135" height="50" as="geometry" />
        </mxCell>
        <mxCell id="Oxr2O7YghAp8t42AMq-g-26" style="edgeStyle=orthogonalEdgeStyle;rounded=1;orthogonalLoop=1;jettySize=auto;html=1;entryX=1;entryY=0.5;entryDx=0;entryDy=0;fontFamily=Verdana;exitX=0.5;exitY=1;exitDx=0;exitDy=0;" edge="1" parent="1" source="Oxr2O7YghAp8t42AMq-g-11" target="Oxr2O7YghAp8t42AMq-g-1">
          <mxGeometry relative="1" as="geometry" />
        </mxCell>
        <mxCell id="Oxr2O7YghAp8t42AMq-g-31" value="学生信息" style="edgeLabel;html=1;align=center;verticalAlign=middle;resizable=0;points=[];fontFamily=Verdana;" vertex="1" connectable="0" parent="Oxr2O7YghAp8t42AMq-g-26">
          <mxGeometry x="0.2135" relative="1" as="geometry">
            <mxPoint as="offset" />
          </mxGeometry>
        </mxCell>
        <mxCell id="Oxr2O7YghAp8t42AMq-g-11" value="查询数据库学生信息" style="swimlane;html=1;fontStyle=0;childLayout=stackLayout;horizontal=1;startSize=26;fillColor=#e0e0e0;horizontalStack=0;resizeParent=1;resizeLast=0;collapsible=1;marginBottom=0;swimlaneFillColor=#ffffff;align=center;rounded=1;shadow=0;comic=0;labelBackgroundColor=none;strokeWidth=1;fontFamily=Verdana;fontSize=12" vertex="1" parent="1">
          <mxGeometry x="880" y="292" width="140" height="84" as="geometry">
            <mxRectangle x="880" y="292" width="140" height="26" as="alternateBounds" />
          </mxGeometry>
        </mxCell>
        <mxCell id="Oxr2O7YghAp8t42AMq-g-36" value="新密码信息" style="edgeStyle=orthogonalEdgeStyle;rounded=1;orthogonalLoop=1;jettySize=auto;html=1;entryX=-0.019;entryY=0.6;entryDx=0;entryDy=0;entryPerimeter=0;fontFamily=Verdana;" edge="1" parent="1" source="Oxr2O7YghAp8t42AMq-g-12" target="Oxr2O7YghAp8t42AMq-g-6">
          <mxGeometry relative="1" as="geometry" />
        </mxCell>
        <mxCell id="Oxr2O7YghAp8t42AMq-g-12" value="修改密码" style="swimlane;html=1;fontStyle=0;childLayout=stackLayout;horizontal=1;startSize=26;fillColor=#e0e0e0;horizontalStack=0;resizeParent=1;resizeLast=0;collapsible=1;marginBottom=0;swimlaneFillColor=#ffffff;align=center;rounded=1;shadow=0;comic=0;labelBackgroundColor=none;strokeWidth=1;fontFamily=Verdana;fontSize=12" vertex="1" parent="1">
          <mxGeometry x="390" y="140" width="120" height="60" as="geometry">
            <mxRectangle x="160" y="570" width="80" height="26" as="alternateBounds" />
          </mxGeometry>
        </mxCell>
        <mxCell id="Oxr2O7YghAp8t42AMq-g-39" style="edgeStyle=orthogonalEdgeStyle;rounded=1;orthogonalLoop=1;jettySize=auto;html=1;fontFamily=Verdana;" edge="1" parent="1" source="Oxr2O7YghAp8t42AMq-g-37" target="21ea969265ad0168-30">
          <mxGeometry relative="1" as="geometry" />
        </mxCell>
        <mxCell id="Oxr2O7YghAp8t42AMq-g-41" value="奖惩信息" style="edgeLabel;html=1;align=center;verticalAlign=middle;resizable=0;points=[];fontFamily=Verdana;" vertex="1" connectable="0" parent="Oxr2O7YghAp8t42AMq-g-39">
          <mxGeometry x="-0.2028" y="4" relative="1" as="geometry">
            <mxPoint y="1" as="offset" />
          </mxGeometry>
        </mxCell>
        <mxCell id="Oxr2O7YghAp8t42AMq-g-37" value="添加奖惩信息" style="swimlane;html=1;fontStyle=0;childLayout=stackLayout;horizontal=1;startSize=26;fillColor=#e0e0e0;horizontalStack=0;resizeParent=1;resizeLast=0;collapsible=1;marginBottom=0;swimlaneFillColor=#ffffff;align=center;rounded=1;shadow=0;comic=0;labelBackgroundColor=none;strokeWidth=1;fontFamily=Verdana;fontSize=12" vertex="1" parent="1">
          <mxGeometry x="870" y="140" width="140" height="70" as="geometry">
            <mxRectangle x="880" y="292" width="140" height="26" as="alternateBounds" />
          </mxGeometry>
        </mxCell>
      </root>
    </mxGraphModel>
  </diagram>
</mxfile>
